<?xml version="1.0" encoding="UTF-8" standalone="no"?>
<!-- Created with Inkscape (http://www.inkscape.org/) -->
<svg
   xmlns:dc="http://purl.org/dc/elements/1.1/"
   xmlns:cc="http://web.resource.org/cc/"
   xmlns:rdf="http://www.w3.org/1999/02/22-rdf-syntax-ns#"
   xmlns:svg="http://www.w3.org/2000/svg"
   xmlns="http://www.w3.org/2000/svg"
   xmlns:sodipodi="http://sodipodi.sourceforge.net/DTD/sodipodi-0.dtd"
   xmlns:inkscape="http://www.inkscape.org/namespaces/inkscape"
   width="1024" height="1024" viewBox="111 108 834 834"
   sodipodi:version="0.32"
   inkscape:version="0.45.1"
   sodipodi:docbase="C:\Documents and Settings\Jonathan\My Documents\My Pictures"
   sodipodi:docname="day-template.svg"
   inkscape:output_extension="org.inkscape.output.svg.inkscape">
  <defs
     id="defs4" />
  <sodipodi:namedview
     id="base"
     pagecolor="#ffffff"
     bordercolor="#666666"
     borderopacity="1.0"
     gridtolerance="10000"
     guidetolerance="10"
     objecttolerance="10"
     inkscape:pageopacity="0.0"
     inkscape:pageshadow="2"
     inkscape:zoom="0.5"
     inkscape:cx="652.10778"
     inkscape:cy="160.0944"
     inkscape:document-units="px"
     inkscape:current-layer="layer1"
     showgrid="false"
     inkscape:window-width="1280"
     inkscape:window-height="968"
     inkscape:window-x="-4"
     inkscape:window-y="-4" />
  <metadata
     id="metadata7">
    <rdf:RDF>
      <cc:Work
         rdf:about="">
        <dc:format>image/svg+xml</dc:format>
        <dc:type
           rdf:resource="http://purl.org/dc/dcmitype/StillImage" />
      </cc:Work>
    </rdf:RDF>
  </metadata>
  <rect width="1024" height="1024" fill="#ffcc00" stroke="#ffcc00" />
  <g
     inkscape:label="Layer 1"
     inkscape:groupmode="layer"
     id="layer1">
    <path
       sodipodi:type="arc"
       style="fill:#ffcc00;fill-opacity:1;stroke:#000000;stroke-opacity:1;stroke-width:7;stroke-miterlimit:4;stroke-dasharray:none;"
       id="path2172"
       sodipodi:cx="530"
       sodipodi:cy="524.36218"
       sodipodi:rx="396"
       sodipodi:ry="396"
       d="M 926 524.36218 A 396 396 0 1 1  134,524.36218 A 396 396 0 1 1  926 524.36218 z" />
    <path
       sodipodi:type="arc"
       style="fill:#000000;fill-opacity:1;stroke:#000000;stroke-width:7;stroke-miterlimit:4;stroke-dasharray:none;stroke-opacity:1"
       id="path4129"
       sodipodi:cx="402"
       sodipodi:cy="334.36218"
       sodipodi:rx="20"
       sodipodi:ry="70"
       d="M 422 334.36218 A 20 70 0 1 1  382,334.36218 A 20 70 0 1 1  422 334.36218 z"
       transform="translate(34,26)" />
    <path
       transform="translate(224,26)"
       d="M 422 334.36218 A 20 70 0 1 1  382,334.36218 A 20 70 0 1 1  422 334.36218 z"
       sodipodi:ry="70"
       sodipodi:rx="20"
       sodipodi:cy="334.36218"
       sodipodi:cx="402"
       id="path4131"
       style="fill:#000000;fill-opacity:1;stroke:#000000;stroke-width:7;stroke-miterlimit:4;stroke-dasharray:none;stroke-opacity:1"
       sodipodi:type="arc" />
    <path
       style="fill:none;fill-rule:evenodd;stroke:#000000;stroke-width:7.73177052;stroke-linecap:butt;stroke-linejoin:miter;stroke-miterlimit:4;stroke-dasharray:none;stroke-opacity:1"
       d="M 784.9525,659.52833 C 521.38087,918.7359 268.73192,664.54394 268.73192,664.54394"
       id="path4143"
       sodipodi:nodetypes="cc" />
    <path
       transform="matrix(0.2002419,-0.2528401,0.2528401,0.2002419,618.77944,696.05054)"
       d="M 422 334.36218 A 20 70 0 1 1  382,334.36218 A 20 70 0 1 1  422 334.36218 z"
       sodipodi:ry="70"
       sodipodi:rx="20"
       sodipodi:cy="334.36218"
       sodipodi:cx="402"
       id="path6083"
       style="fill:#000000;fill-opacity:1;stroke:#000000;stroke-width:7;stroke-miterlimit:4;stroke-dasharray:none;stroke-opacity:1"
       sodipodi:type="arc" />
    <path
       sodipodi:type="arc"
       style="fill:#000000;fill-opacity:1;stroke:#000000;stroke-width:7;stroke-miterlimit:4;stroke-dasharray:none;stroke-opacity:1"
       id="path6087"
       sodipodi:cx="402"
       sodipodi:cy="334.36218"
       sodipodi:rx="20"
       sodipodi:ry="70"
       d="M 422 334.36218 A 20 70 0 1 1  382,334.36218 A 20 70 0 1 1  422 334.36218 z"
       transform="matrix(-0.2002419,-0.2528401,-0.2528401,0.2002419,436.85426,700.05054)" />
  </g>
</svg>
